<?xml version="1.0" encoding="UTF-8" standalone="no"?>
<svg xmlns="http://www.w3.org/2000/svg" width="256px" height="256px" viewBox="0 0 256 256" version="1.1" preserveAspectRatio="xMidYMid">
	<g>
		<path d="M0,0 L256,0 L256,256 L0,256 L0,0 Z" fill="#F7DF1E"></path>
		<path d="M67.311746,213.932292 L86.902654,202.076241 C90.6821079,208.777346 94.1202286,214.447137 102.367086,214.447137 C110.272203,214.447137 115.256076,211.354819 115.256076,199.326883 L115.256076,117.528787 L139.313575,117.528787 L139.313575,199.666997 C139.313575,224.58433 124.707759,235.925943 103.3984,235.925943 C84.1532952,235.925943 72.9819429,225.958603 67.3113397,213.93026" fill="#000000"></path>
		<path d="M152.380952,211.354413 L171.969422,200.0128 C177.125994,208.433981 183.827911,214.619835 195.684368,214.619835 C205.652521,214.619835 212.009041,209.635962 212.009041,202.76031 C212.009041,194.505839 205.479416,191.759472 193.481542,186.240669 L187.420573,183.336309 C168.610819,175.759086 156.441927,166.58646 156.441927,145.464544 C156.441927,126.220507 171.220608,112.379773 194.826913,112.379773 C211.310965,112.379773 223.65974,118.978892 232.269773,135.637091 L213.538621,147.840286 C209.399625,140.4958 204.933452,137.753204 194.826635,137.753204 C184.402273,137.753204 178.174254,143.934864 178.174254,150.363531 C178.174254,158.26288 184.402273,161.00995 195.312064,166.180809 L201.375522,169.082154 C223.495777,178.009063 235.664225,186.840471 235.664225,208.52991 C235.664225,231.345175 217.370335,235.927975 196.255777,235.927975 C175.970859,235.927975 161.718265,227.49249 152.381173,211.354413" fill="#000000"></path>
	</g>
</svg>